<?xml version="1.0" encoding="UTF-8" standalone="no"?>
<svg
   version="1.1"
   viewBox="0 0 2048 2048"
   width="4096"
   height="4096"
   id="svg18"
   sodipodi:docname="askauto_logo_white.svg"
   inkscape:version="1.4.2 (ebf0e940, 2025-05-08)"
   xmlns:inkscape="http://www.inkscape.org/namespaces/inkscape"
   xmlns:sodipodi="http://sodipodi.sourceforge.net/DTD/sodipodi-0.dtd"
   xmlns="http://www.w3.org/2000/svg"
   xmlns:svg="http://www.w3.org/2000/svg">
  <defs
     id="defs18" />
  <sodipodi:namedview
     id="namedview18"
     pagecolor="#ffffff"
     bordercolor="#000000"
     borderopacity="0.25"
     inkscape:showpageshadow="2"
     inkscape:pageopacity="0.0"
     inkscape:pagecheckerboard="0"
     inkscape:deskcolor="#d1d1d1"
     inkscape:zoom="0.15600701"
     inkscape:cx="708.30151"
     inkscape:cy="2237.079"
     inkscape:window-width="1392"
     inkscape:window-height="837"
     inkscape:window-x="165"
     inkscape:window-y="34"
     inkscape:window-maximized="0"
     inkscape:current-layer="svg18" />
  <path
     transform="translate(486,801)"
     d="m0 0h1105l16 3 16 6 15 9 13 11 8 9 9 14 7 16 4 20 1 23v178l-2 20-5 16-8 16-10 13-10 10-15 10-13 6-16 5-15 2h-894l-8 8-7 8-15 14-11 9-16 12-18 12-15 9-20 11-26 12-26 10-25 7-34 6-16 2h-8l6-7 27-27 9-11 13-17 10-17 7-16 8-25h-32l-19-3-16-6-14-8-10-8-8-8-8-10-8-14-5-13-3-13-1-10v-208l4-18 7-16 7-12 11-13 9-8 14-9 16-7z"
     fill="#DF7C35"
     id="path2"
     style="fill:#f67111;fill-opacity:1"
     inkscape:export-filename="askauto_logo_1000px.svg"
     inkscape:export-xdpi="37.180481"
     inkscape:export-ydpi="37.180481" />
  <path
     transform="translate(747,873)"
     d="m0 0h12l7 4 5 7 2 5v4l7-3h11l38 7 10 4 5 6 2 5v12l-2 15v7l21-33 8-9 6-3h50l11 2 6 4 4 6 2 6v8l-7 14-13 18-12 17-16 21-1 4 7 7 14 11 15 12 19 14 12 9 8 9 2 6-1 10-4 8-6 5-12 5-28 11-8 3h-9l-8-4-17-13-16-12-10-7 2 12v7l-3 8-7 6-21 7-25 8h-9l-8-4-5-6-1-6-16 7-17 6-14 3-9 1h-28l-24-4-2 5-5 5-5 3h-11l-42-5-13-4-5-5-7-14-8-20v-3h-21l-1 6-10 24-6 11-7 6-7 3h-8l-16-8-22-12-9-6-5-6-2-6v-8l5-13 15-29 15-36 11-31 8-30 8-34 4-8 8-6 36-12 15-3 10 3 7 6 4 9 8 35 1 1 6-8 8-8 15-9 16-6 13-3h21l1-4 5-5 17-10 23-11z"
     fill="#010101"
     id="path3" />
  <path
     transform="translate(486,801)"
     d="m0 0h1105l16 3 16 6 15 9 13 11 8 9 9 14 7 16 4 20 1 23v178l-2 20-5 16-8 16-10 13-10 10-15 10-13 6-16 5-15 2h-894l-8 8-7 8-15 14-11 9-16 12-18 12-15 9-20 11-26 12-26 10-25 7-34 6-16 2h-8l6-7 27-27 9-11 13-17 10-17 7-16 8-25h-32l-19-3-16-6-14-8-10-8-8-8-8-10-8-14-5-13-3-13-1-10v-208l4-18 7-16 7-12 11-13 9-8 14-9 16-7zm0 25-14 4-11 6-12 10-9 11-7 12-5 17-1 16v98l1 94 3 16 5 13 9 14 9 9 11 7 13 6 12 3 13 1h31l23-1-3 17-5 25-7 20-12 25-11 18 1 2 27-10 29-14 23-13 21-14 14-11 11-9 14-12 14-14 7-8 1-1h865l49-1 16-5 11-6 10-8 7-7 7-11 5-11 3-11 1-8v-199l-2-15-5-13-6-10-9-11-11-9-10-6-15-5-6-1z"
     fill="#010101"
     id="path4" />
  <path
     transform="translate(1276,887)"
     d="m0 0h2l10 18 5 11 2 4 25-6 30-5 31-3 15-1h47l30 2-1 14-1 8 7-6 14-8 16-6 11-2h22l14 3 13 5 11 6 12 11 8 9 8 15 4 12 3 20v15l-3 18-5 15-7 14-8 10-11 11-16 9-16 5-12 2h-18l-20-4-12-5-11-6-12-11-8-10-7-15-4-15-1-8v-24l4-20 5-14 4-9h-55v51l2 27 5 32 4 18v5l-10 4-35 11-3-1-7-34-5-33-2-28v-27l1-15 1-5-28 5-17 4h-5l1 4v24l-2 17-4 18-6 16-8 15-8 10-10 10-13 8-13 5-9 2h-20l-12-3-10-4-11-8-9-9-8-14-5-14-4-21-1-8v-34l4-27 3-10 26-16 18-11h2l-5 35-1 10v36l3 20 5 17 5 9 8 7 6 2h7l8-4 6-8 5-13 3-17v-32l-3-21-4-15-12-25v-3l27-14z"
     fill="#010101"
     id="path5" />
  <path
     transform="translate(1675,869)"
     d="m0 0 3 3 9 16 5 15 2 17v202l-2 14-5 16-8 16-8 10-12 12-16 10-16 7-16 4-7 1h-898l-12 13-15 15-17 13-16 12-18 12-15 9-29 15-31 13-25 8-26 6-25 4-10 1h-9l2-4 16-15 9-9-1-2 29-6 23-7 29-12 23-11 23-13 18-12 14-10 14-11 13-12 8-7 14-15h894l15-2 16-5 16-8 13-9 10-10 9-13 7-14 5-16 2-20v-178l-1-23-3-15z"
     fill="#DF7C35"
     id="path6"
     style="fill:#dc5d09;fill-opacity:0.50167227" />
  <path
     transform="translate(753,891)"
     d="m0 0 2 4 4 24 7 31 6 22-1 3-29 13h-4l-8-15-7-8-9-5-15-3-13 1-7 3-4 4v6l4 5 16 9 29 11 24 10 19 10 14 11 6 10 2 9v9l-3 12-6 10-7 6-12 7-18 6-19 3h-21l-18-3-21-6-14-7-3-1 8 17 3 5v4l-21-2-24-3-5-5-10-22-8-20-46 3-5 12-15 35-5-1-23-12-9-6 9-20 11-23 11-27 9-25 10-33 6-26 3-17 10-4 29-9h4l12 49 8 27 12 37 13 34v2l8-7 14-14 11 12 10 8 12 6 14 4 6 1h18l11-3 5-3 1-5-2-4-14-8-27-10-22-8-20-9-14-9-9-9-7-14-1-5v-10l4-13 6-9 7-7 12-7 11-4 17-3h15l13 3 8 4-6-19 19-10z"
     fill="#FDFAF9"
     id="path7" />
  <path
     transform="translate(1101,892)"
     d="m0 0 2 1 6 30 9 36 9 27 12 33 13 31 11 26 9 19 2 5-14-1-38-5-4-2-10-23-8-18v-3l-43 3-5 1-12 28-8 17-3 1-26-14-11-7 8-18 13-26 11-25 14-36 9-29 6-24 3-14 8-3z"
     fill="#010101"
     id="path8" />
  <path
     transform="translate(785,909)"
     d="m0 0 22 3 18 3-2 27v47l14-7 10-10 15-20 12-18 8-13 2-2 46-1-2 5-11 15-13 19-10 13-9 12-12 14 20 20 8 7 13 11 20 15 13 10 12 8v2l-37 15-6 2-16-11-18-14-12-9-11-9-14-12-10-8-6-1 9 39 5 20v4l-38 13h-2l-4-16-9-42-3-16-4-34-1-18v-39l2-23z"
     fill="#FDFAF8"
     id="path9" />
  <path
     transform="translate(1525,942)"
     d="m0 0 11 1 9 4 8 7 6 10 4 14 1 6v27l-4 17-5 10-7 8-10 5-10 1-10-2-10-6-6-7-5-11-4-18v-24l4-17 6-12 8-8 8-4z"
     fill="#DF7C35"
     id="path10" />
  <path
     transform="translate(423,1149)"
     d="m0 0 5 4 7 8 8 7 15 9 15 6 13 3 9 1 32 1-4 16-3 9-23-3-17-5-16-8-10-7-10-9-8-8-9-14-4-8z"
     fill="#DF7C35"
     id="path11" />
  <path
     transform="translate(1624,1070)"
     d="m0 0 7 1 4 5v11l-4 16-7 14-8 10-9 8-14 7-13 3h-8l-5-6v-6l4-5 17-4 10-5 8-7 6-10 4-12 3-16z"
     fill="#FEFEFE"
     id="path12" />
  <path
     transform="translate(499,843)"
     d="m0 0 9 1 5 5v6l-4 4-13 3-11 4-9 7-7 9-4 8-3 14-1 8-6 5-6-1-5-6v-11l6-18 6-11 9-10 9-8 12-6z"
     fill="#FEFEFE"
     id="path13" />
  <path
     transform="translate(571,1170)"
     d="m0 0h6l4 5v12l-5 17-8 16-9 13-4 3 1-7 6-20 3-17 2-18z"
     fill="#FEFEFE"
     id="path14" />
  <path
     transform="translate(567,982)"
     d="m0 0 2 1 9 30 3 11v3l-15 1h-13l6-18 7-27z"
     fill="#010101"
     id="path15" />
  <path
     transform="translate(1078,975)"
     d="m0 0 2 2 11 35v5l-13 1h-15l3-10 11-32z"
     fill="#DF7C35"
     id="path16" />
  <path
     transform="translate(1625,1032)"
     d="m0 0h6l4 3 1 3v12l-4 6-6 1-5-3-1-2v-13l3-6z"
     fill="#FEFEFE"
     id="path17" />
  <path
     transform="translate(451,929)"
     d="m0 0 5 1 4 4 1 3v9l-4 7-2 1h-6l-4-5-1-3v-9l4-6z"
     fill="#FEFEFE"
     id="path18" />
</svg>
