<?xml version="1.0" encoding="UTF-8" standalone="no"?>
<svg
   version="1.1"
   viewBox="0 0 1291 532"
   width="2582"
   height="1064"
   id="svg18"
   xmlns="http://www.w3.org/2000/svg"
   xmlns:svg="http://www.w3.org/2000/svg">
  <defs
     id="defs18" />
  <path
     d="m 83,0 h 1105 l 16,3 16,6 15,9 13,11 8,9 9,14 7,16 4,20 1,23 v 178 l -2,20 -5,16 -8,16 -10,13 -10,10 -15,10 -13,6 -16,5 -15,2 H 289 l -8,8 -7,8 -15,14 -11,9 -16,12 -18,12 -15,9 -20,11 -26,12 -26,10 -25,7 -34,6 -16,2 h -8 l 6,-7 27,-27 9,-11 13,-17 10,-17 7,-16 8,-25 H 92 L 73,384 57,378 43,370 33,362 25,354 17,344 9,330 4,317 1,304 0,294 V 86 L 4,68 11,52 18,40 29,27 38,19 52,10 68,3 Z"
     fill="#DF7C35"
     id="path2"
     style="fill:#f67111;fill-opacity:1" />
  <path
     d="m 344,72 h 12 l 7,4 5,7 2,5 v 4 l 7,-3 h 11 l 38,7 10,4 5,6 2,5 v 12 l -2,15 v 7 l 21,-33 8,-9 6,-3 h 50 l 11,2 6,4 4,6 2,6 v 8 l -7,14 -13,18 -12,17 -16,21 -1,4 7,7 14,11 15,12 19,14 12,9 8,9 2,6 -1,10 -4,8 -6,5 -12,5 -28,11 -8,3 h -9 l -8,-4 -17,-13 -16,-12 -10,-7 2,12 v 7 l -3,8 -7,6 -21,7 -25,8 h -9 l -8,-4 -5,-6 -1,-6 -16,7 -17,6 -14,3 -9,1 h -28 l -24,-4 -2,5 -5,5 -5,3 h -11 l -42,-5 -13,-4 -5,-5 -7,-14 -8,-20 v -3 h -21 l -1,6 -10,24 -6,11 -7,6 -7,3 h -8 l -16,-8 -22,-12 -9,-6 -5,-6 -2,-6 v -8 l 5,-13 15,-29 15,-36 11,-31 8,-30 8,-34 4,-8 8,-6 36,-12 15,-3 10,3 7,6 4,9 8,35 1,1 6,-8 8,-8 15,-9 16,-6 13,-3 h 21 l 1,-4 5,-5 17,-10 23,-11 z"
     fill="#010101"
     id="path3" />
  <path
     d="m 83,0 h 1105 l 16,3 16,6 15,9 13,11 8,9 9,14 7,16 4,20 1,23 v 178 l -2,20 -5,16 -8,16 -10,13 -10,10 -15,10 -13,6 -16,5 -15,2 H 289 l -8,8 -7,8 -15,14 -11,9 -16,12 -18,12 -15,9 -20,11 -26,12 -26,10 -25,7 -34,6 -16,2 h -8 l 6,-7 27,-27 9,-11 13,-17 10,-17 7,-16 8,-25 H 92 L 73,384 57,378 43,370 33,362 25,354 17,344 9,330 4,317 1,304 0,294 V 86 L 4,68 11,52 18,40 29,27 38,19 52,10 68,3 Z m 0,25 -14,4 -11,6 -12,10 -9,11 -7,12 -5,17 -1,16 v 98 l 1,94 3,16 5,13 9,14 9,9 11,7 13,6 12,3 13,1 h 31 l 23,-1 -3,17 -5,25 -7,20 -12,25 -11,18 1,2 27,-10 29,-14 23,-13 21,-14 14,-11 11,-9 14,-12 14,-14 7,-8 1,-1 h 865 l 49,-1 16,-5 11,-6 10,-8 7,-7 7,-11 5,-11 3,-11 1,-8 V 95 l -2,-15 -5,-13 -6,-10 -9,-11 -11,-9 -10,-6 -15,-5 -6,-1 z"
     fill="#010101"
     id="path4" />
  <path
     d="m 873,86 h 2 l 10,18 5,11 2,4 25,-6 30,-5 31,-3 15,-1 h 47 l 30,2 -1,14 -1,8 7,-6 14,-8 16,-6 11,-2 h 22 l 14,3 13,5 11,6 12,11 8,9 8,15 4,12 3,20 v 15 l -3,18 -5,15 -7,14 -8,10 -11,11 -16,9 -16,5 -12,2 h -18 l -20,-4 -12,-5 -11,-6 -12,-11 -8,-10 -7,-15 -4,-15 -1,-8 v -24 l 4,-20 5,-14 4,-9 h -55 v 51 l 2,27 5,32 4,18 v 5 l -10,4 -35,11 -3,-1 -7,-34 -5,-33 -2,-28 v -27 l 1,-15 1,-5 -28,5 -17,4 h -5 l 1,4 v 24 l -2,17 -4,18 -6,16 -8,15 -8,10 -10,10 -13,8 -13,5 -9,2 h -20 l -12,-3 -10,-4 -11,-8 -9,-9 -8,-14 -5,-14 -4,-21 -1,-8 v -34 l 4,-27 3,-10 26,-16 18,-11 h 2 l -5,35 -1,10 v 36 l 3,20 5,17 5,9 8,7 6,2 h 7 l 8,-4 6,-8 5,-13 3,-17 v -32 l -3,-21 -4,-15 -12,-25 v -3 l 27,-14 z"
     fill="#010101"
     id="path5" />
  <path
     d="m 1272,68 3,3 9,16 5,15 2,17 v 202 l -2,14 -5,16 -8,16 -8,10 -12,12 -16,10 -16,7 -16,4 -7,1 H 303 l -12,13 -15,15 -17,13 -16,12 -18,12 -15,9 -29,15 -31,13 -25,8 -26,6 -25,4 -10,1 h -9 l 2,-4 16,-15 9,-9 -1,-2 29,-6 23,-7 29,-12 23,-11 23,-13 18,-12 14,-10 14,-11 13,-12 8,-7 14,-15 h 894 l 15,-2 16,-5 16,-8 13,-9 10,-10 9,-13 7,-14 5,-16 2,-20 V 111 l -1,-23 -3,-15 z"
     fill="#DF7C35"
     id="path6"
     style="fill:#dc5d09;fill-opacity:0.501672" />
  <path
     d="m 350,90 2,4 4,24 7,31 6,22 -1,3 -29,13 h -4 l -8,-15 -7,-8 -9,-5 -15,-3 -13,1 -7,3 -4,4 v 6 l 4,5 16,9 29,11 24,10 19,10 14,11 6,10 2,9 v 9 l -3,12 -6,10 -7,6 -12,7 -18,6 -19,3 h -21 l -18,-3 -21,-6 -14,-7 -3,-1 8,17 3,5 v 4 l -21,-2 -24,-3 -5,-5 -10,-22 -8,-20 -46,3 -5,12 -15,35 -5,-1 -23,-12 -9,-6 9,-20 11,-23 11,-27 9,-25 10,-33 6,-26 3,-17 10,-4 29,-9 h 4 l 12,49 8,27 12,37 13,34 v 2 l 8,-7 14,-14 11,12 10,8 12,6 14,4 6,1 h 18 l 11,-3 5,-3 1,-5 -2,-4 -14,-8 -27,-10 -22,-8 -20,-9 -14,-9 -9,-9 -7,-14 -1,-5 v -10 l 4,-13 6,-9 7,-7 12,-7 11,-4 17,-3 h 15 l 13,3 8,4 -6,-19 19,-10 z"
     fill="#fdfaf9"
     id="path7" />
  <path
     d="m 698,91 2,1 6,30 9,36 9,27 12,33 13,31 11,26 9,19 2,5 -14,-1 -38,-5 -4,-2 -10,-23 -8,-18 v -3 l -43,3 -5,1 -12,28 -8,17 -3,1 -26,-14 -11,-7 8,-18 13,-26 11,-25 14,-36 9,-29 6,-24 3,-14 8,-3 z"
     fill="#010101"
     id="path8" />
  <path
     d="m 382,108 22,3 18,3 -2,27 v 47 l 14,-7 10,-10 15,-20 12,-18 8,-13 2,-2 46,-1 -2,5 -11,15 -13,19 -10,13 -9,12 -12,14 20,20 8,7 13,11 20,15 13,10 12,8 v 2 l -37,15 -6,2 -16,-11 -18,-14 -12,-9 -11,-9 -14,-12 -10,-8 -6,-1 9,39 5,20 v 4 l -38,13 h -2 l -4,-16 -9,-42 -3,-16 -4,-34 -1,-18 v -39 l 2,-23 z"
     fill="#fdfaf8"
     id="path9" />
  <path
     d="m 1122,141 11,1 9,4 8,7 6,10 4,14 1,6 v 27 l -4,17 -5,10 -7,8 -10,5 -10,1 -10,-2 -10,-6 -6,-7 -5,-11 -4,-18 v -24 l 4,-17 6,-12 8,-8 8,-4 z"
     fill="#df7c35"
     id="path10" />
  <path
     d="m 20,348 5,4 7,8 8,7 15,9 15,6 13,3 9,1 32,1 -4,16 -3,9 -23,-3 -17,-5 -16,-8 -10,-7 -10,-9 -8,-8 -9,-14 -4,-8 z"
     fill="#df7c35"
     id="path11" />
  <path
     d="m 1221,269 7,1 4,5 v 11 l -4,16 -7,14 -8,10 -9,8 -14,7 -13,3 h -8 l -5,-6 v -6 l 4,-5 17,-4 10,-5 8,-7 6,-10 4,-12 3,-16 z"
     fill="#fefefe"
     id="path12" />
  <path
     d="m 96,42 9,1 5,5 v 6 l -4,4 -13,3 -11,4 -9,7 -7,9 -4,8 -3,14 -1,8 -6,5 -6,-1 -5,-6 V 98 l 6,-18 6,-11 9,-10 9,-8 12,-6 z"
     fill="#fefefe"
     id="path13" />
  <path
     d="m 168,369 h 6 l 4,5 v 12 l -5,17 -8,16 -9,13 -4,3 1,-7 6,-20 3,-17 2,-18 z"
     fill="#fefefe"
     id="path14" />
  <path
     d="m 164,181 2,1 9,30 3,11 v 3 l -15,1 h -13 l 6,-18 7,-27 z"
     fill="#010101"
     id="path15" />
  <path
     d="m 675,174 2,2 11,35 v 5 l -13,1 h -15 l 3,-10 11,-32 z"
     fill="#df7c35"
     id="path16" />
  <path
     d="m 1222,231 h 6 l 4,3 1,3 v 12 l -4,6 -6,1 -5,-3 -1,-2 v -13 l 3,-6 z"
     fill="#fefefe"
     id="path17" />
  <path
     d="m 48,128 5,1 4,4 1,3 v 9 l -4,7 -2,1 h -6 l -4,-5 -1,-3 v -9 l 4,-6 z"
     fill="#fefefe"
     id="path18" />
</svg>
