<svg xmlns="http://www.w3.org/2000/svg" viewBox="0 0 720 520" fill="none">
  <rect width="720" height="520" rx="48" fill="#F8FAFC"/>
  <rect x="48" y="64" width="624" height="392" rx="32" fill="#FFFFFF" stroke="#E2E8F0" stroke-width="2"/>

  <!-- Consultant card -->
  <rect x="88" y="120" width="240" height="280" rx="28" fill="#F1F5F9"/>
  <circle cx="208" cy="180" r="44" fill="#FFFFFF" stroke="#CBD5F5" stroke-width="4"/>
  <path d="M184 180c0-18 12-30 24-30s24 12 24 30" stroke="#CBD5F5" stroke-width="10" stroke-linecap="round"/>
  <path d="M168 172c0-22 16-38 40-38s40 16 40 38" stroke="#94A3B8" stroke-width="6" stroke-linecap="round"/>
  <circle cx="160" cy="176" r="6" fill="#F97316"/>
  <circle cx="256" cy="176" r="6" fill="#F97316"/>
  <rect x="132" y="246" width="152" height="16" rx="8" fill="#CBD5F5"/>
  <rect x="120" y="274" width="176" height="14" rx="7" fill="#E2E8F0"/>
  <rect x="120" y="298" width="120" height="14" rx="7" fill="#E2E8F0"/>

  <!-- Financing panel -->
  <rect x="360" y="120" width="296" height="168" rx="24" fill="#FFF7ED" stroke="#FED7AA" stroke-width="2"/>
  <rect x="384" y="144" width="120" height="28" rx="14" fill="#F97316"/>
  <text x="444" y="164" text-anchor="middle" font-size="14" font-family="Inter, Arial, sans-serif" fill="#FFFFFF">PLN</text>
  <rect x="384" y="188" width="224" height="14" rx="7" fill="#FDBA74"/>
  <rect x="384" y="212" width="190" height="14" rx="7" fill="#FDBA74"/>
  <rect x="384" y="236" width="160" height="14" rx="7" fill="#FDBA74"/>

  <!-- Car + approval -->
  <rect x="140" y="324" width="468" height="96" rx="28" fill="#F1F5F9"/>
  <path d="M230 370h220" stroke="#CBD5F5" stroke-width="14" stroke-linecap="round"/>
  <path d="M260 346h160" stroke="#94A3B8" stroke-width="10" stroke-linecap="round"/>
  <circle cx="260" cy="392" r="18" fill="#F97316"/>
  <circle cx="420" cy="392" r="18" fill="#F97316"/>
  <path d="M252 392l6 6 12-12" stroke="#FFFFFF" stroke-width="4" stroke-linecap="round" stroke-linejoin="round"/>
  <path d="M412 392l6 6 12-12" stroke="#FFFFFF" stroke-width="4" stroke-linecap="round" stroke-linejoin="round"/>
</svg>
